<svg width="256" height="256" viewBox="0 0 256 256" fill="none" xmlns="http://www.w3.org/2000/svg">
<path fill-rule="evenodd" clip-rule="evenodd" d="M114.059 29C107.431 29 102.059 34.3726 102.059 41V53.7001C102.059 56.166 100.51 58.3558 98.2518 59.3456C95.9081 60.3728 93.1575 59.9505 91.3481 58.141L82.3647 49.1576C77.6784 44.4713 70.0804 44.4713 65.3941 49.1576L47.7164 66.8353C43.0301 71.5216 43.0301 79.1195 47.7164 83.8058L57.489 93.5785C59.1312 95.2206 59.5499 97.7019 58.6672 99.8499C57.7796 102.01 55.7146 103.5 53.3797 103.5H39.5588C32.9314 103.5 27.5588 108.873 27.5588 115.5V140.5C27.5588 147.127 32.9314 152.5 39.5588 152.5H52.8C55.2574 152.5 57.4228 154.089 58.3295 156.373C59.2116 158.595 58.7681 161.143 57.0776 162.833L47.7164 172.194C43.0301 176.88 43.0301 184.478 47.7164 189.165L65.3941 206.842C70.0804 211.529 77.6784 211.529 82.3646 206.842L90.3469 198.86C92.3323 196.875 95.3556 196.428 97.9218 197.568C100.373 198.656 102.059 201.036 102.059 203.718V215C102.059 221.627 107.431 227 114.059 227H139.059C145.686 227 151.059 221.627 151.059 215V205.926C151.059 202.764 153.144 199.997 156.087 198.842C158.929 197.728 162.182 198.272 164.34 200.43L170.753 206.842C175.439 211.529 183.037 211.529 187.724 206.842L205.401 189.165C210.088 184.478 210.088 176.88 205.401 172.194L199.804 166.597C197.466 164.259 196.927 160.713 198.203 157.663C199.472 154.633 202.359 152.5 205.644 152.5H213.559C220.186 152.5 225.559 147.127 225.559 140.5V115.5C225.559 108.873 220.186 103.5 213.559 103.5H205.044C201.891 103.5 199.11 101.48 197.859 98.5862C196.572 95.6103 197.084 92.1234 199.376 89.8308L205.401 83.8059C210.087 79.1196 210.088 71.5216 205.401 66.8353L187.724 49.1576C183.037 44.4713 175.439 44.4713 170.753 49.1576L163.323 56.5871C161.338 58.5724 158.35 59.09 155.731 58.0782C152.993 57.0201 151.059 54.4488 151.059 51.5129V41C151.059 34.3726 145.686 29 139.059 29H114.059ZM128.529 171.029C152.002 171.029 171.029 152.002 171.029 128.529C171.029 105.057 152.002 86.0294 128.529 86.0294C105.057 86.0294 86.0294 105.057 86.0294 128.529C86.0294 152.002 105.057 171.029 128.529 171.029Z" fill="white"/>
</svg>
